<svg width="60" height="60" viewBox="0 0 60 60" fill="none" xmlns="http://www.w3.org/2000/svg">
<g clip-path="url(#clip0_4355_120)">
<rect width="60" height="60" fill="white"/>
<path d="M15.0945 54V6.72727H31.0676C34.7761 6.72727 37.8076 7.39666 40.162 8.73544C42.5318 10.0588 44.2861 11.8516 45.4248 14.1136C46.5635 16.3757 47.1329 18.8994 47.1329 21.6847C47.1329 24.4699 46.5635 27.0013 45.4248 29.2788C44.3015 31.5562 42.5626 33.372 40.2082 34.7262C37.8538 36.065 34.8377 36.7344 31.1599 36.7344H19.711V31.6562H30.9752C33.5143 31.6562 35.5532 31.2177 37.0921 30.3406C38.6309 29.4634 39.7465 28.2785 40.439 26.7859C41.1469 25.2778 41.5008 23.5774 41.5008 21.6847C41.5008 19.7919 41.1469 18.0992 40.439 16.6065C39.7465 15.1139 38.6232 13.9444 37.069 13.098C35.5148 12.2363 33.4527 11.8054 30.8829 11.8054H20.819V54H15.0945Z" fill="#F87F28"/>
</g>
<defs>
<clipPath id="clip0_4355_120">
<rect width="60" height="60" fill="white"/>
</clipPath>
</defs>
</svg>
