<svg width="60" height="60" viewBox="0 0 60 60" fill="none" xmlns="http://www.w3.org/2000/svg">
<g clip-path="url(#clip0_4355_169)">
<rect width="60" height="60" fill="white"/>
<path d="M42.6578 6.72727H48.3822V38.027C48.3822 41.2585 47.6205 44.1438 46.0971 46.6829C44.589 49.2066 42.4578 51.1993 39.7033 52.6612C36.9488 54.1077 33.7172 54.831 30.0087 54.831C26.3001 54.831 23.0686 54.1077 20.3141 52.6612C17.5596 51.1993 15.4206 49.2066 13.8972 46.6829C12.3891 44.1438 11.6351 41.2585 11.6351 38.027V6.72727H17.3595V37.5653C17.3595 39.8736 17.8673 41.9279 18.8829 43.7283C19.8986 45.5134 21.3451 46.9214 23.2224 47.9524C25.1152 48.968 27.3773 49.4759 30.0087 49.4759C32.64 49.4759 34.9021 48.968 36.7949 47.9524C38.6876 46.9214 40.1341 45.5134 41.1344 43.7283C42.15 41.9279 42.6578 39.8736 42.6578 37.5653V6.72727Z" fill="#F87F28"/>
</g>
<defs>
<clipPath id="clip0_4355_169">
<rect width="60" height="60" fill="white"/>
</clipPath>
</defs>
</svg>
