<svg width="60" height="60" viewBox="0 0 60 60" fill="none" xmlns="http://www.w3.org/2000/svg">
<g clip-path="url(#clip0_3518_63)">
<rect width="60" height="60" fill="white"/>
<path d="M50.8549 30.3636C50.8549 35.3494 49.9547 39.6581 48.1543 43.2898C46.3539 46.9214 43.8841 49.7221 40.7449 51.6918C37.6056 53.6615 34.0202 54.6463 29.9885 54.6463C25.9567 54.6463 22.3713 53.6615 19.2321 51.6918C16.0929 49.7221 13.623 46.9214 11.8226 43.2898C10.0222 39.6581 9.12198 35.3494 9.12198 30.3636C9.12198 25.3778 10.0222 21.0691 11.8226 17.4375C13.623 13.8059 16.0929 11.0052 19.2321 9.03551C22.3713 7.06581 25.9567 6.08096 29.9885 6.08096C34.0202 6.08096 37.6056 7.06581 40.7449 9.03551C43.8841 11.0052 46.3539 13.8059 48.1543 17.4375C49.9547 21.0691 50.8549 25.3778 50.8549 30.3636ZM45.3152 30.3636C45.3152 26.2704 44.6304 22.8157 43.2608 19.9996C41.9067 17.1836 40.0678 15.0523 37.7441 13.6058C35.4359 12.1593 32.8507 11.4361 29.9885 11.4361C27.1262 11.4361 24.5333 12.1593 22.2097 13.6058C19.9015 15.0523 18.0626 17.1836 16.693 19.9996C15.3388 22.8157 14.6618 26.2704 14.6618 30.3636C14.6618 34.4569 15.3388 37.9116 16.693 40.7276C18.0626 43.5437 19.9015 45.675 22.2097 47.1214C24.5333 48.5679 27.1262 49.2912 29.9885 49.2912C32.8507 49.2912 35.4359 48.5679 37.7441 47.1214C40.0678 45.675 41.9067 43.5437 43.2608 40.7276C44.6304 37.9116 45.3152 34.4569 45.3152 30.3636Z" fill="#F87F28"/>
</g>
<defs>
<clipPath id="clip0_3518_63">
<rect width="60" height="60" fill="white"/>
</clipPath>
</defs>
</svg>
