<svg width="60" height="60" viewBox="0 0 60 60" fill="none" xmlns="http://www.w3.org/2000/svg">
<g clip-path="url(#clip0_3510_2)">
<rect width="60" height="60" fill="white"/>
<path d="M50.1192 21.5H44.3948C44.0562 19.8535 43.4638 18.407 42.6174 17.1605C41.7864 15.9141 40.7708 14.8677 39.5705 14.0213C38.3856 13.1596 37.0699 12.5133 35.6234 12.0824C34.177 11.6515 32.6689 11.4361 31.0993 11.4361C28.2371 11.4361 25.6442 12.1593 23.3205 13.6058C21.0123 15.0523 19.1734 17.1836 17.8038 19.9996C16.4497 22.8157 15.7726 26.2704 15.7726 30.3636C15.7726 34.4569 16.4497 37.9116 17.8038 40.7276C19.1734 43.5437 21.0123 45.675 23.3205 47.1214C25.6442 48.5679 28.2371 49.2912 31.0993 49.2912C32.6689 49.2912 34.177 49.0758 35.6234 48.6449C37.0699 48.214 38.3856 47.5754 39.5705 46.729C40.7708 45.8673 41.7864 44.8132 42.6174 43.5668C43.4638 42.3049 44.0562 40.8584 44.3948 39.2273H50.1192C49.6883 41.6432 48.9035 43.8053 47.7648 45.7134C46.6261 47.6216 45.2103 49.245 43.5176 50.5838C41.8249 51.9072 39.9245 52.9151 37.8163 53.6076C35.7235 54.3001 33.4845 54.6463 31.0993 54.6463C27.0676 54.6463 23.4821 53.6615 20.3429 51.6918C17.2037 49.7221 14.7339 46.9214 12.9335 43.2898C11.133 39.6581 10.2328 35.3494 10.2328 30.3636C10.2328 25.3778 11.133 21.0691 12.9335 17.4375C14.7339 13.8059 17.2037 11.0052 20.3429 9.03551C23.4821 7.06581 27.0676 6.08096 31.0993 6.08096C33.4845 6.08096 35.7235 6.4272 37.8163 7.11967C39.9245 7.81214 41.8249 8.82777 43.5176 10.1665C45.2103 11.4899 46.6261 13.1057 47.7648 15.0138C48.9035 16.9066 49.6883 19.0687 50.1192 21.5Z" fill="#F87F28"/>
</g>
<defs>
<clipPath id="clip0_3510_2">
<rect width="60" height="60" fill="white"/>
</clipPath>
</defs>
</svg>
