<svg width="350" height="350" viewBox="0 0 350 350" fill="none" xmlns="http://www.w3.org/2000/svg">
<path fill-rule="evenodd" clip-rule="evenodd" d="M128.437 14C127.121 14 125.959 14.8577 125.57 16.1151L115.728 48H115.721C115.721 48 93.8482 119.447 115.721 155C130.828 179.555 174.5 199.5 174.5 199.5C174.5 199.5 218.172 179.555 233.279 155C255.152 119.447 233.279 48 233.279 48L233.285 48L222.469 16.0383C222.056 14.82 220.913 14 219.627 14H128.437Z" fill="#D9D9D9"/>
<rect x="171.752" y="193" width="4.98123" height="81" fill="#D9D9D9"/>
<path d="M171.914 274L177.154 274L222.561 302L125.925 302L171.914 274Z" fill="#D9D9D9"/>
<path fill-rule="evenodd" clip-rule="evenodd" d="M237.913 121.924C238.092 121.573 238.158 121.235 238.105 120.913C237.301 116.01 209.213 116.608 175.37 122.248C141.526 127.887 114.743 136.434 115.548 141.337C115.561 141.415 115.58 141.492 115.607 141.567L115.546 141.577C116.973 145.335 118.728 148.991 120.87 152.466C134.654 174.833 174.5 193.001 174.5 193.001C174.5 193.001 214.346 174.833 228.13 152.466C233.913 143.083 236.795 132.382 237.972 121.914L237.913 121.924Z" fill="#6D0202"/>
<path fill-rule="evenodd" clip-rule="evenodd" d="M206.903 167.634C213.159 162.877 218.869 157.734 222.997 152.465C250 118 217.5 27.5 217.5 27.5H214.022C217.546 41.2958 237.131 122.756 216.997 155.353C214.367 159.611 210.877 163.731 206.903 167.634Z" fill="white"/>
<path d="M126.294 16.5C126.505 15.6204 127.291 15 128.196 15H219.919C220.863 15 221.701 15.6042 222 16.5V16.5H126.294V16.5Z" fill="white"/>
</svg>
