<svg width="350" height="350" viewBox="0 0 350 350" fill="none" xmlns="http://www.w3.org/2000/svg">
<path fill-rule="evenodd" clip-rule="evenodd" d="M128.437 14C127.121 14 125.959 14.8577 125.57 16.1151L115.728 48L115.721 48C115.721 48 93.8482 119.447 115.721 155C130.828 179.555 174.5 199.5 174.5 199.5C174.5 199.5 218.172 179.555 233.279 155C255.152 119.447 233.279 48 233.279 48H233.285L222.469 16.0383C222.056 14.82 220.913 14 219.627 14H128.437Z" fill="#D9D9D9"/>
<rect width="4.98123" height="81" transform="matrix(-1 8.74228e-08 8.74228e-08 1 177.248 193)" fill="#D9D9D9"/>
<path d="M177.086 274L171.846 274L126.439 302L223.075 302L177.086 274Z" fill="#D9D9D9"/>
<path fill-rule="evenodd" clip-rule="evenodd" d="M110.371 108.952C110.385 108.871 110.406 108.791 110.435 108.715C112.159 104.055 139.877 110.091 172.346 122.196C204.76 134.28 229.654 147.845 228.022 152.527L228.079 152.548C214.248 174.877 174.5 193 174.5 193C174.5 193 134.654 174.832 120.87 152.465C112.732 139.26 110.338 123.444 110.356 109.343C110.348 109.244 110.348 109.148 110.357 109.055C110.357 109.019 110.357 108.983 110.358 108.947L110.371 108.952Z" fill="#6D0202"/>
<path fill-rule="evenodd" clip-rule="evenodd" d="M206.903 167.634C213.159 162.877 218.869 157.734 222.997 152.465C250 118 217.5 27.5 217.5 27.5H214.022C217.546 41.2958 237.131 122.756 216.997 155.353C214.367 159.611 210.877 163.731 206.903 167.634Z" fill="white"/>
<path d="M126.294 16.5C126.505 15.6204 127.291 15 128.196 15H219.919C220.863 15 221.701 15.6042 222 16.5V16.5H126.294V16.5Z" fill="white"/>
</svg>
