<svg width="350" height="350" viewBox="0 0 350 350" fill="none" xmlns="http://www.w3.org/2000/svg">
<path fill-rule="evenodd" clip-rule="evenodd" d="M128.437 14C127.121 14 125.959 14.8577 125.57 16.1151L115.728 48L233.279 48L233.285 48L222.469 16.0383C222.056 14.82 220.913 14 219.627 14L128.437 14ZM233.279 48C233.279 48 255.152 119.447 233.279 155C218.172 179.555 174.5 199.5 174.5 199.5C174.5 199.5 130.828 179.555 115.721 155C93.8482 119.447 115.721 48 115.721 48L233.279 48Z" fill="#D9D9D9"/>
<rect width="4.98123" height="81" transform="matrix(-1 8.74228e-08 8.74228e-08 1 177.248 193)" fill="#D9D9D9"/>
<path d="M177.086 274L171.846 274L126.439 302L223.075 302L177.086 274Z" fill="#D9D9D9"/>
<path fill-rule="evenodd" clip-rule="evenodd" d="M110.563 102.961C110.584 102.887 110.61 102.815 110.643 102.746C112.767 98.2549 140.071 106.788 171.63 121.805C203.188 136.822 227.049 152.637 224.925 157.129C224.809 157.376 224.616 157.584 224.35 157.753C208.219 177.627 174.5 193.001 174.5 193.001C174.5 193.001 134.654 174.833 120.87 152.466C111.474 137.219 109.735 118.493 110.526 102.944L110.563 102.961Z" fill="#6D0202"/>
<path fill-rule="evenodd" clip-rule="evenodd" d="M206.903 167.634C213.159 162.877 218.869 157.734 222.997 152.465C250 118 217.5 27.5 217.5 27.5H214.022C217.546 41.2958 237.131 122.756 216.997 155.353C214.367 159.611 210.877 163.731 206.903 167.634Z" fill="white"/>
<path d="M126.294 16.5C126.505 15.6204 127.291 15 128.196 15H219.919C220.863 15 221.701 15.6042 222 16.5V16.5H126.294V16.5Z" fill="white"/>
</svg>
