<svg width="24" height="24" viewBox="0 0 24 24" fill="none" xmlns="http://www.w3.org/2000/svg">
<path d="M3 22V20H5V16.8C4.41667 16.6 3.9375 16.2458 3.5625 15.7375C3.1875 15.2292 3 14.65 3 14V6H9V14C9 14.65 8.8125 15.2292 8.4375 15.7375C8.0625 16.2458 7.58333 16.6 7 16.8V20H9V22H3ZM5 11H7V8H5V11ZM6 15C6.28333 15 6.52083 14.9042 6.7125 14.7125C6.90417 14.5208 7 14.2833 7 14V13H5V14C5 14.2833 5.09583 14.5208 5.2875 14.7125C5.47917 14.9042 5.71667 15 6 15ZM13 22C12.45 22 11.9792 21.8042 11.5875 21.4125C11.1958 21.0208 11 20.55 11 20V10.45C11 10.0167 11.125 9.62917 11.375 9.2875C11.625 8.94583 11.95 8.7 12.35 8.55L13.3 8.2C13.5333 8.11667 13.7083 7.99583 13.825 7.8375C13.9417 7.67917 14 7.48333 14 7.25V3C14 2.71667 14.0958 2.47917 14.2875 2.2875C14.4792 2.09583 14.7167 2 15 2H18C18.2833 2 18.5208 2.09583 18.7125 2.2875C18.9042 2.47917 19 2.71667 19 3V7.25C19 7.48333 19.0583 7.67917 19.175 7.8375C19.2917 7.99583 19.4667 8.11667 19.7 8.2L20.65 8.55C21.05 8.7 21.375 8.94583 21.625 9.2875C21.875 9.62917 22 10.0167 22 10.45V20C22 20.55 21.8042 21.0208 21.4125 21.4125C21.0208 21.8042 20.55 22 20 22H13ZM16 5H17V4H16V5ZM13 12H20V10.45L19.05 10.1C18.4167 9.86667 17.9167 9.5 17.55 9C17.1833 8.5 17 7.93333 17 7.3V7H16V7.3C16 7.93333 15.8167 8.5 15.45 9C15.0833 9.5 14.5833 9.86667 13.95 10.1L13 10.45V12ZM13 20H20V18H13V20ZM13 16H20V14H13V16Z" fill="white"/>
</svg>
